<svg width="84" height="45" viewBox="0 0 84 45" fill="none" xmlns="http://www.w3.org/2000/svg">
<path d="M1.32848 34.5411L0.672984 34.5574L1.32369 34.6231C1.49353 34.6521 1.66513 34.6712 1.83758 34.6803C2.66826 34.7322 3.50227 34.7295 4.33388 34.6723C5.1741 34.5871 6.00887 34.4533 6.83366 34.2715C7.76535 34.0628 8.68465 33.8033 9.58713 33.4941C9.90877 33.381 10.2199 33.2607 10.5173 33.1426C10.5988 33.21 10.7164 33.2983 10.8665 33.4126C10.4572 33.7525 9.98579 34.1389 9.55364 34.5368C8.87472 35.1885 8.2473 35.8886 7.6768 36.6311C7.21452 37.2369 6.94483 37.6568 6.94483 37.6568C6.94483 37.6568 7.30957 37.302 7.89694 36.8283C8.60464 36.2525 9.3578 35.7314 10.1493 35.27C10.4069 35.1182 10.6674 34.9749 10.9309 34.8401C10.8376 34.9235 10.7398 35.0077 10.6519 35.0947C9.88909 35.8557 9.26139 36.7331 8.79463 37.6907C8.70105 37.8824 8.62339 38.0579 8.5624 38.2215C8.50141 38.3851 8.44504 38.5209 8.40914 38.6397L8.28931 39.0072L8.48464 38.672C8.54092 38.5633 8.62749 38.4404 8.72016 38.2985C8.82476 38.1403 8.93752 37.9873 9.058 37.84C9.67612 37.0487 10.4263 36.3623 11.2771 35.8094C11.721 35.523 12.1871 35.2707 12.6712 35.0548C12.8196 34.9936 12.9634 34.9332 13.1087 34.8815L13.2076 34.9414C12.7565 35.28 12.3342 35.6531 11.9446 36.0571C11.33 36.6988 10.803 37.414 10.3769 38.1847C10.2051 38.4934 10.0825 38.7621 10.0018 38.9471L9.87917 39.2429L10.0735 38.9846C10.201 38.8277 10.3816 38.5987 10.6243 38.3502C11.7415 37.1723 13.146 36.2844 14.7064 35.7697L14.7834 35.8108L14.3189 36.1554C13.8116 36.5686 13.3334 37.0142 12.8874 37.489C12.085 38.3744 11.4227 39.3696 10.9225 40.4414C10.819 40.6573 10.7314 40.857 10.6643 41.0397C10.5972 41.2224 10.5295 41.3737 10.4935 41.5195L10.3622 41.9295L10.5683 41.5475C10.6321 41.4284 10.7248 41.2865 10.8281 41.1247C10.9314 40.9629 11.0461 40.7857 11.2077 40.6095C11.8751 39.6948 12.6822 38.883 13.6011 38.2023C14.0822 37.8478 14.5876 37.5257 15.1138 37.2382C15.5498 37.0111 15.9987 36.8086 16.4584 36.6317L16.7264 36.7532C16.5807 36.9131 16.4365 37.0818 16.3014 37.276C15.9591 37.727 15.6719 38.2145 15.4456 38.7285C15.346 38.9558 15.2607 39.1886 15.1902 39.4256C15.347 39.2364 15.5162 39.0571 15.6968 38.8889C16.0732 38.5344 16.4905 38.2231 16.9403 37.9614C17.3375 37.7337 17.7583 37.5476 18.1955 37.4061L18.2657 37.4348C18.1549 37.5798 18.0493 37.7285 17.9498 37.8851C17.6633 38.313 17.418 38.7651 17.2168 39.2356C17.0576 39.6188 16.9805 39.8798 16.9805 39.8798C16.9805 39.8798 17.1648 39.6728 17.4681 39.396C17.8314 39.066 18.2248 38.7684 18.6434 38.5071C18.9191 38.3365 19.2046 38.1812 19.4983 38.0421C19.1904 38.4356 18.911 38.849 18.6621 39.2794C18.2072 40.0793 17.8807 40.9405 17.6941 41.833C17.6313 42.1203 17.587 42.4109 17.5613 42.7032L17.5331 43.0326L17.6429 42.7164C17.7359 42.4461 17.8471 42.1817 17.9758 41.9251C18.3561 41.1565 18.8547 40.4472 19.4542 39.8216C19.9608 39.2949 20.5332 38.8313 21.158 38.4419L21.8022 38.6349C21.7529 38.7018 21.6983 38.7652 21.6542 38.8358C21.1831 39.5301 20.853 40.3038 20.6817 41.1151C20.6492 41.2677 20.627 41.4221 20.6152 41.5773C20.6005 41.7105 20.5865 41.8211 20.5839 41.9162L20.5732 42.2111L20.6663 41.9338C20.7 41.8265 20.7415 41.7215 20.7905 41.6197C20.8419 41.4847 20.904 41.3536 20.9762 41.2276C21.3293 40.5572 21.8107 39.9569 22.3946 39.4588C22.5944 39.2913 22.8053 39.1366 23.0258 38.9957C23.4314 39.1029 23.8507 39.2077 24.2783 39.3066C24.1115 39.6619 23.9707 40.0277 23.8568 40.4015C23.6189 41.2002 23.515 42.0292 23.549 42.8569C23.5578 43.1229 23.5855 43.3879 23.632 43.6499L23.6817 43.9435C23.6817 43.9435 23.6957 43.833 23.7152 43.6448C23.7434 43.3881 23.7892 43.1334 23.8521 42.8822C24.1437 41.6533 24.7729 40.5199 25.6729 39.6025L26.1164 39.6852C26.0357 39.8702 25.961 40.0632 25.8999 40.2539C25.6555 40.9947 25.5341 41.7671 25.5405 42.5421C25.538 42.7898 25.5549 43.0372 25.5911 43.282C25.6208 43.4573 25.6379 43.5581 25.6379 43.5581L25.6841 43.2798C25.7209 43.0415 25.7763 42.806 25.8496 42.5754C26.0532 41.8905 26.3687 41.2403 26.784 40.6497C26.9707 40.385 27.178 40.1344 27.404 39.9C27.9216 39.9791 28.4475 40.0524 28.9856 40.1145C28.9531 40.3365 28.9237 40.5759 28.9094 40.7947C28.8602 41.5004 28.9017 42.2082 29.0328 42.902C29.0873 43.2095 29.1621 43.5131 29.2568 43.8109C29.2646 43.5049 29.2908 43.1994 29.3352 42.8959C29.4304 42.2477 29.6065 41.6123 29.8597 41.0035C29.9602 40.7505 30.074 40.5024 30.2007 40.2604C30.7744 40.3121 31.3556 40.3534 31.9482 40.3793C31.8861 40.669 31.8391 40.9614 31.8071 41.2553C31.7353 41.9605 31.7552 42.6706 31.8663 43.369C31.9132 43.6773 31.9805 43.9821 32.0676 44.2817C32.0799 43.9738 32.1137 43.6668 32.1687 43.3628C32.3434 42.3173 32.7415 41.3161 33.3376 40.4235L34.2213 40.4316C34.2418 40.6324 34.2756 40.8315 34.3223 41.0277C34.3579 41.2029 34.4043 41.3757 34.4613 41.5453C34.5655 41.1546 34.7214 40.7781 34.9252 40.4252C35.5534 40.4134 36.1847 40.3922 36.8327 40.3591C36.8292 40.7786 36.855 41.1975 36.9097 41.613C37.0125 42.3424 37.207 43.056 37.489 43.7378C37.5793 43.9585 37.6813 44.1745 37.7946 44.3849L37.9232 44.6201C37.8574 44.3065 37.8114 43.989 37.7855 43.6695C37.7337 42.9824 37.7735 42.2908 37.9038 41.6115C37.9883 41.1502 38.1129 40.6962 38.2762 40.2544C38.6997 40.2187 39.1269 40.178 39.5625 40.1312L40.4057 43.2077L40.821 39.9812C41.3474 39.8921 41.8874 39.8277 42.4229 39.737C42.6681 40.0649 42.8942 40.4059 43.1001 40.7585C43.571 41.5547 43.9574 42.3955 44.2535 43.2684C44.2535 43.2684 44.2644 42.9194 44.2412 42.3688C44.2119 41.714 44.1359 41.0625 44.0137 40.4189C43.9595 40.0989 43.8826 39.7828 43.8041 39.485L44.5348 39.3612C44.6758 39.4771 44.8176 39.5974 44.9585 39.7404C45.3507 40.0869 45.6913 40.4843 45.9709 40.9216C46.0534 41.0689 46.1133 41.2274 46.1486 41.3919C46.165 41.4567 46.1762 41.5226 46.182 41.5892C46.2082 41.5254 46.2299 41.4599 46.2468 41.3933C46.2857 41.2089 46.2962 41.0202 46.2781 40.8335C46.1881 40.2737 46.022 39.7288 45.7842 39.2128L45.7428 39.1341L46.6423 38.9322C47.0019 39.2019 47.3417 39.4954 47.6594 39.8105C48.162 40.3443 48.6051 40.9281 48.9815 41.5524C49.1556 41.8435 49.3139 42.1432 49.4557 42.4505C49.4185 42.1099 49.3613 41.7718 49.2843 41.438C49.1007 40.6899 48.8338 39.9641 48.4881 39.2733C48.3604 39.0154 48.216 38.7693 48.0724 38.5277L49.0741 38.2678C49.8064 38.8018 50.3672 39.5253 50.693 40.3563C50.7701 40.5482 50.8317 40.7458 50.8771 40.9473C50.9024 41.0963 50.9165 41.1796 50.9165 41.1796L50.946 40.9401C50.9741 40.7274 50.9847 40.513 50.9774 40.2991C50.9554 39.6228 50.8063 38.9575 50.5375 38.3356C50.476 38.1927 50.4061 38.0558 50.3362 37.9188L51.2578 37.6545C51.319 37.6847 51.3847 37.7142 51.4571 37.756C51.887 37.9781 52.2861 38.2513 52.6452 38.5693C53.023 38.9007 53.3551 39.2778 53.6336 39.6914C53.7676 39.8842 53.8889 40.085 53.9969 40.2927C53.9864 40.0536 53.9602 39.8156 53.9182 39.5801C53.8266 39.0453 53.6678 38.5241 53.4453 38.028C53.3069 37.718 53.1454 37.4183 52.9619 37.1314L53.7058 36.8927C53.9626 37.0914 54.2 37.3122 54.4152 37.5526C54.7716 37.9492 55.0696 38.3917 55.3009 38.868C55.4093 39.0939 55.5017 39.3268 55.5776 39.5651C55.5995 39.3106 55.6046 39.0552 55.5929 38.8005C55.5684 38.2169 55.4597 37.6404 55.2701 37.0877C55.1943 36.8743 55.1074 36.6648 55.0097 36.46L56.2971 36.012C56.6829 36.2605 57.0434 36.5436 57.374 36.8576C57.6521 37.1216 57.8209 37.3185 57.8209 37.3185C57.7694 37.1095 57.7065 36.9034 57.6323 36.7012C57.5087 36.352 57.3576 36.0128 57.1803 35.6866L58.3262 35.258C58.8516 35.4369 59.3585 35.6619 59.8406 35.9304C59.6498 35.581 59.4368 35.2437 59.2027 34.9202C59.7326 34.7133 60.2571 34.5027 60.7718 34.2893C60.9419 34.3786 61.1033 34.4825 61.2539 34.5999C61.4067 34.715 61.5499 34.8415 61.6822 34.9782C61.6371 34.7887 61.5776 34.6029 61.504 34.4223C61.4575 34.3129 61.3943 34.1883 61.3259 34.0601C68.3981 31.1161 75.1723 27.5306 81.557 23.352L83.3904 22.1037L81.3054 21.3702C79.3179 20.6608 78.938 20.5402 72.7259 15.7264C71.1917 14.5344 69.5889 13.427 67.9251 12.4094C68.1794 12.1978 68.4083 11.9594 68.6077 11.6986C68.7166 11.5569 68.8146 11.4076 68.9009 11.2522C68.7467 11.3338 68.5874 11.406 68.424 11.4682C68.0797 11.5954 67.7195 11.6761 67.3535 11.7081C67.1435 11.7257 66.9325 11.7252 66.723 11.7067C66.4544 11.5538 66.2039 11.3978 65.914 11.2576C66.1373 11.0349 66.3353 10.7897 66.5045 10.5263C66.788 10.0844 66.9762 9.5923 67.0578 9.07997C67.0825 8.91968 67.0941 8.75791 67.0926 8.59615C67.0733 8.48219 67.0629 8.42083 67.0629 8.42083L66.9875 8.58237C66.9196 8.72141 66.8408 8.85534 66.7519 8.98298C66.4948 9.34867 66.1628 9.65974 65.7769 9.89658C65.4235 10.1142 65.0291 10.2607 64.6174 10.3274C64.4929 10.3503 64.3665 10.3611 64.24 10.3598L64.1447 10.3759L63.7899 10.2106C64.0386 9.92605 64.2538 9.61586 64.4316 9.28578C64.7232 8.7665 64.9061 8.19762 64.9698 7.61204C64.9872 7.42848 64.9903 7.24408 64.9791 7.06039L64.9449 6.85877L64.8793 7.05023C64.8206 7.21877 64.7467 7.38216 64.6586 7.5385C64.4188 7.97379 64.0932 8.35996 63.7003 8.67487C63.3074 8.98979 62.855 9.22724 62.369 9.3736C62.2732 9.39551 62.1762 9.41193 62.0786 9.42279L62.0287 9.40418C62.215 9.13782 62.3799 8.85815 62.522 8.56767C62.7798 8.04265 62.9512 7.48261 63.0299 6.90807C63.0671 6.65752 63.0821 6.40458 63.0745 6.15204C62.9752 6.3835 62.857 6.60707 62.7209 6.82062C62.2051 7.68003 61.4388 8.37474 60.5193 8.81667L59.7929 8.55194C60.1436 8.15259 60.4602 7.7265 60.7396 7.27793C61.1352 6.63878 61.4429 5.95301 61.6546 5.23827C61.7372 4.95376 61.7893 4.71047 61.8216 4.54269C61.8539 4.3749 61.8701 4.27748 61.8701 4.27748L61.743 4.51992C61.6609 4.66909 61.5424 4.87855 61.3783 5.12275C60.6062 6.26407 59.5454 7.19688 58.2983 7.83117L58.0181 7.96879L57.4532 7.80296L57.5944 7.61673C57.9514 7.09966 58.2162 6.52889 58.3775 5.92855C58.4272 5.7367 58.4644 5.54216 58.489 5.34608L58.5131 5.13008L58.4059 5.32408C58.319 5.49885 58.2179 5.66676 58.1034 5.82618C57.7731 6.27712 57.3661 6.67088 56.9 6.99037C56.6298 7.1689 56.3433 7.32307 56.0443 7.45091C55.5866 7.33907 55.1257 7.23677 54.6664 7.14323C54.7485 6.99406 54.8337 6.83535 54.9098 6.67818C55.1678 6.16666 55.3904 5.63941 55.5762 5.09996C55.7174 4.66574 55.7893 4.374 55.7893 4.374C55.3013 5.006 54.7516 5.59136 54.1479 6.12187C53.8451 6.38674 53.527 6.6348 53.1953 6.86484C52.7881 6.80306 52.3808 6.74128 51.9712 6.69343C52.1174 6.20791 52.2271 5.71315 52.2994 5.21306C52.389 4.55428 52.4093 3.88915 52.36 3.22794C52.3117 2.69505 52.2433 2.34594 52.2433 2.34594C52.2433 2.34594 52.19 2.69312 52.0562 3.19823C51.8896 3.80075 51.6585 4.38543 51.3666 4.94271C51.0843 5.48259 50.7452 5.99332 50.3548 6.4667L50.3161 6.51383L49.5792 6.4628C49.5937 6.16276 49.5962 5.84671 49.5798 5.52936C49.5574 4.92172 49.4862 4.31723 49.367 3.72131C49.2853 3.23917 49.1774 2.93281 49.1774 2.93281C49.1774 2.93281 49.1484 3.25785 49.0608 3.73259C48.9589 4.30266 48.8105 4.86451 48.6171 5.41288C48.4976 5.74297 48.3609 6.06711 48.2073 6.38403C47.7712 6.37224 47.3274 6.37074 46.8889 6.37286C46.0102 5.46627 45.3175 4.40585 44.8469 3.24692C44.6331 2.72856 44.5291 2.36291 44.5291 2.36291C44.5291 2.36291 44.5136 2.73977 44.5503 3.31518C44.5981 4.0253 44.7172 4.72845 44.9059 5.41468C45.0024 5.76356 45.1207 6.10422 45.246 6.43019L44.9957 6.44101C43.9538 5.45596 43.1274 4.27778 42.5647 2.97516C42.4171 2.64048 42.289 2.29791 42.1808 1.94905C42.1908 2.31821 42.2205 2.68641 42.2696 3.05219C42.3803 3.87666 42.5846 4.68577 42.879 5.4649C43.0212 5.84424 43.1854 6.21534 43.3707 6.57646L43.1528 6.61335L42.7613 6.3415C41.295 5.28925 40.1043 3.91987 39.2826 2.34069C39.1098 2.00926 38.9867 1.72351 38.8982 1.50404L38.7691 1.18323C38.7691 1.18323 38.7899 1.30595 38.8263 1.52073C38.8627 1.7355 38.9161 2.05108 38.9792 2.42364C39.2011 3.33729 39.5296 4.22249 39.9583 5.0623C40.2864 5.6936 40.6681 6.29702 41.0995 6.86642L40.9679 6.88871L40.8985 6.83734C40.0798 6.22476 39.335 5.52522 38.6779 4.75162C38.0079 3.96273 37.4317 3.10306 36.96 2.1885C36.7608 1.81193 36.6167 1.48465 36.5214 1.25281L36.3713 0.890464L36.4374 1.28056C36.4789 1.52602 36.5391 1.88104 36.6701 2.29621C36.9505 3.32173 37.3469 4.313 37.8523 5.25215C38.2228 5.93678 38.6461 6.59305 39.1185 7.21546C38.9415 7.24544 38.7645 7.27541 38.5965 7.33092L38.2021 7.01447C37.8296 6.7015 37.4755 6.3686 37.1416 6.01729C36.76 5.60388 36.4042 5.16882 36.0759 4.71437C35.456 3.84186 34.9551 2.89478 34.5855 1.89628C34.5083 1.68843 34.4432 1.49657 34.3953 1.32432C34.3475 1.15207 34.2942 1.00327 34.2666 0.895234L34.1628 0.502523C34.1628 0.502523 34.1873 0.647163 34.1849 0.909068C34.1881 1.03779 34.1992 1.1862 34.2183 1.35429C34.2374 1.52239 34.2625 1.72555 34.2935 1.96377C34.4596 3.0665 34.7705 4.14262 35.2187 5.16615C35.4662 5.72131 35.7493 6.26064 36.0664 6.78101C36.3012 7.14705 36.5322 7.49117 36.761 7.79508C36.4639 7.87846 36.1673 7.96477 35.8712 8.054C35.6092 7.90985 35.3585 7.74736 35.1213 7.56781C34.6725 7.23351 34.2027 6.85769 33.7458 6.44811C32.9055 5.73148 32.1154 4.96158 31.3807 4.14339C30.7712 3.46659 30.4038 2.97874 30.4038 2.97874C30.4038 2.97874 30.669 3.52448 31.1292 4.31223C31.6989 5.28255 32.3326 6.21589 33.0263 7.10652C33.4081 7.59645 33.8103 8.06938 34.1975 8.50879L34.2819 8.59369L33.5834 8.85177C33.1058 8.63828 32.6457 8.39068 32.2067 8.11102C31.5038 7.66408 30.8573 7.13966 30.2801 6.54813C30.0374 6.30067 29.8514 6.08419 29.7089 5.93247L29.5086 5.68685C29.5086 5.68685 29.5589 5.79105 29.6362 5.97184C29.7136 6.15262 29.8473 6.41853 30.0202 6.7229C30.4446 7.47904 30.9573 8.18487 31.5483 8.82671C31.7427 9.03727 31.95 9.24113 32.1603 9.43546L31.9037 9.54656C30.9846 8.96805 30.0992 8.34134 29.2515 7.66919C28.3578 6.95682 27.5046 6.19826 26.6957 5.39675C26.0333 4.73794 25.6144 4.27685 25.6144 4.27685C25.6144 4.27685 25.9333 4.80898 26.4608 5.58082C27.1073 6.53043 27.8076 7.4444 28.5585 8.3186C29.1444 9.02193 29.7895 9.6882 30.3683 10.2665L29.8746 10.5214C29.4198 10.4001 28.8927 10.2369 28.3936 10.0464C27.8944 9.85585 27.1787 9.57128 26.5695 9.28219C25.4431 8.74307 24.3742 8.09969 23.3776 7.36096C22.962 7.05711 22.6355 6.78326 22.4071 6.59201L22.0512 6.28256C22.0512 6.28256 22.1619 6.41259 22.3464 6.64737C22.5309 6.88214 22.8142 7.20389 23.1713 7.57625C24.0465 8.50152 25.0127 9.34197 26.0567 10.0859C26.63 10.4938 27.2306 10.87 27.8101 11.2047L28.232 11.4354L27.7828 11.7053C27.4972 11.6725 27.1911 11.6297 26.8791 11.5788C26.2343 11.4597 25.5997 11.2959 24.9801 11.0889C23.7994 10.6908 22.6915 10.118 21.6953 9.39079C21.5076 9.258 21.3276 9.11539 21.1561 8.9636C20.9932 8.82887 20.8522 8.71298 20.7459 8.60924L20.406 8.28356L20.6845 8.66022C20.7711 8.78533 20.8878 8.92337 21.0272 9.08463C21.1743 9.26772 21.3317 9.44275 21.4988 9.60893C22.3932 10.5382 23.4322 11.3264 24.579 11.9459C25.1122 12.2353 25.6652 12.4896 26.2345 12.707L25.7201 13.0601L25.1131 12.7842C24.6375 12.5672 24.0941 12.2805 23.5304 11.9566C22.9667 11.6328 22.3835 11.2491 21.8133 10.8317C20.7692 10.0661 19.8066 9.20223 18.9395 8.25239C18.5748 7.86327 18.2969 7.51807 18.1064 7.2753L17.8007 6.87619C17.8007 6.87619 17.8879 7.03275 18.0292 7.28836C18.1706 7.54397 18.3938 7.95253 18.6842 8.39932C19.396 9.51261 20.2227 10.5524 21.152 11.5028C21.6606 12.0253 22.2019 12.5198 22.7304 12.9668C23.259 13.4138 23.7764 13.7951 24.2358 14.1096L24.0539 14.2486L23.8855 14.1915C23.2021 13.96 22.4282 13.6357 21.6046 13.2657C20.781 12.8957 19.9341 12.4439 19.1041 11.9533C17.5728 11.0455 16.1424 9.98857 14.835 8.79874C14.5651 8.55589 14.3209 8.32672 14.1174 8.1177C13.914 7.90869 13.7255 7.7332 13.5589 7.57655L13.1023 7.08577L13.4923 7.62391C13.6157 7.8014 13.7753 8.02686 13.9553 8.23534C14.1353 8.44382 14.3469 8.72811 14.5939 9.02895C15.7585 10.397 17.0649 11.6456 18.493 12.7557C19.2819 13.3615 20.0913 13.9233 20.904 14.4214C21.5046 14.7705 22.0872 15.1228 22.6246 15.4015L22.3471 15.6378L22.1084 15.5791C21.2951 15.37 20.494 15.1204 19.7082 14.8313C18.8035 14.4916 17.9184 14.1057 17.0568 13.6752C15.4333 12.8505 13.9138 11.8494 12.5271 10.691C12.2391 10.4513 11.982 10.2288 11.7642 10.0177C11.5464 9.8066 11.345 9.6378 11.2057 9.47654L10.7271 8.99399L11.145 9.5319C11.2768 9.70346 11.4463 9.90471 11.6444 10.1372C11.8425 10.3696 12.0677 10.6246 12.3239 10.8968C13.5897 12.2448 15.0119 13.4471 16.5629 14.4803C17.3979 15.0322 18.2631 15.5403 19.155 16.0026C19.8101 16.3425 20.4299 16.6118 21.0075 16.8521L20.8506 17.0004C20.4492 16.9737 20.0064 16.9225 19.528 16.8547C18.9482 16.7569 18.3747 16.6282 17.8101 16.4693C16.7348 16.1623 15.7027 15.7316 14.7357 15.1865C14.3342 14.9659 14.0136 14.7542 13.7918 14.6024L13.4433 14.3639L13.7372 14.6658C13.9963 14.9341 14.2701 15.1887 14.5573 15.4286C15.4341 16.1756 16.4002 16.8186 17.4355 17.3444C17.6551 17.456 17.8823 17.5573 18.1043 17.6549C17.623 17.5696 17.1365 17.4536 16.6478 17.3245C15.7175 17.0664 14.8052 16.7526 13.9163 16.3849C13.0341 16.0016 12.1798 15.5619 11.3591 15.0685C10.6331 14.6296 9.93813 14.1449 9.27862 13.6174L8.86236 13.2821L8.50047 12.9646C8.27506 12.7638 8.07679 12.5855 7.94346 12.4322L7.45583 11.9512L8.02481 12.5267C8.15732 12.7026 8.33058 12.8987 8.53248 13.126L8.85566 13.4906C8.97398 13.6103 9.09906 13.7425 9.23396 13.8774C9.83455 14.4911 10.4776 15.0646 11.1587 15.5939C11.9497 16.2015 12.7816 16.758 13.649 17.2598C14.5301 17.7525 15.4419 18.1929 16.3793 18.5783C17.1494 18.8799 17.9356 19.1426 18.7348 19.3652L18.558 19.562L18.3667 19.5628C17.5318 19.5601 16.6983 19.5086 15.8709 19.4084C14.9157 19.2811 13.9712 19.0916 13.0438 18.8411C12.1121 18.5829 11.2011 18.261 10.3177 17.8781C9.54028 17.5379 8.78898 17.1453 8.06925 16.7033L7.61577 16.4239L7.21898 16.1485C6.97079 15.9786 6.74974 15.8312 6.58613 15.692L6.04767 15.2692L6.53076 15.751C6.68373 15.91 6.88126 16.0839 7.11121 16.2839C7.22202 16.3869 7.34265 16.4927 7.47384 16.6058C7.60503 16.7188 7.74909 16.8252 7.89464 16.9403C8.5624 17.4698 9.26822 17.9529 10.0069 18.3861C10.8695 18.8972 11.7695 19.3475 12.7001 19.7335C13.2022 19.9415 13.7376 20.1259 14.2602 20.2899C13.4985 20.1754 12.7075 20.0253 11.9226 19.8291C10.9726 19.5907 10.039 19.2972 9.12668 18.95C8.32548 18.6377 7.54567 18.2774 6.79177 17.871L6.31478 17.6182L5.89447 17.3692C5.62961 17.2112 5.37828 17.0779 5.21615 16.9476L4.63825 16.5675L5.18041 17.0122C5.34477 17.1557 5.55971 17.3222 5.80105 17.5068L6.19248 17.8057L6.64208 18.1173C7.35461 18.6179 8.09929 19.0746 8.87176 19.4846C9.76323 19.9566 10.6839 20.3758 11.6287 20.74C12.5849 21.0965 13.562 21.3991 14.5553 21.6466C15.1189 21.7766 15.6606 21.8878 16.1714 21.9816C15.6179 22.0213 15.0009 22.0446 14.3492 22.0558C13.4672 22.0509 12.5865 22.0029 11.7105 21.912C10.0574 21.7315 8.4318 21.3764 6.86262 20.8529C6.53711 20.7502 6.24337 20.6421 5.9851 20.5506C5.72684 20.4591 5.48747 20.3689 5.31461 20.2854L4.74082 20.0399L5.26221 20.3619C5.4335 20.4637 5.64935 20.5804 5.89466 20.7057C6.13996 20.831 6.40936 20.9883 6.72794 21.1327C8.25745 21.8697 9.86671 22.4438 11.5277 22.8447C12.1887 22.9988 12.8536 23.1207 13.5109 23.2257C12.6496 23.322 11.7315 23.4144 10.8174 23.4475C9.18477 23.5388 7.55127 23.3579 5.98833 22.9127C5.46805 22.757 4.96471 22.5539 4.48505 22.3061C4.30765 22.2234 4.18091 22.1367 4.08808 22.0848L3.94848 22.0047L4.07744 22.1046C4.15813 22.1676 4.27728 22.2647 4.44098 22.3767C4.88654 22.6899 5.36234 22.9611 5.86198 23.1866C7.40916 23.8551 9.06635 24.2607 10.7616 24.3857C11.9708 24.4966 13.1788 24.5174 14.2447 24.5262C13.8543 24.6465 13.4351 24.7626 12.9872 24.8745C11.3909 25.2418 9.74617 25.3543 8.11836 25.2076C7.39892 25.1423 6.68616 25.0249 5.98605 24.8564L5.54337 24.751L5.14987 24.6328C4.90365 24.5573 4.68689 24.4903 4.51172 24.4207L3.96351 24.216L4.47747 24.4942C4.6382 24.5887 4.8458 24.6843 5.0836 24.7928L5.45878 24.9682L5.88916 25.1388C6.57895 25.4067 7.2885 25.6256 8.0122 25.7937C8.85298 25.9811 9.70769 26.1076 10.5693 26.1722C11.2192 26.213 11.8715 26.2169 12.5227 26.1841C11.9973 26.4173 11.447 26.6413 10.8734 26.8376C10.1893 27.0627 9.49346 27.2513 8.78888 27.4026C8.16614 27.5303 7.53725 27.6263 6.90482 27.6901C6.62798 27.737 6.37095 27.7354 6.14412 27.7468C5.91729 27.7582 5.71463 27.7745 5.5506 27.7707L5.00476 27.7729L5.51635 27.8441C5.67956 27.8706 5.87907 27.8909 6.10656 27.911C6.33405 27.9311 6.58193 27.9612 6.87823 27.9742C7.52813 28.0102 8.17996 28.0127 8.83093 27.9816C9.582 27.9434 10.3307 27.8633 11.0732 27.7416C10.8128 27.8308 10.5525 27.92 10.2861 28.0012C8.87261 28.4388 7.42294 28.7537 5.95442 28.9422C5.35537 29.0437 4.84122 29.0676 4.48509 29.0874L3.9263 29.1234L4.48483 29.1686C4.84005 29.1986 5.35403 29.2288 5.96711 29.2376C7.48412 29.263 9.00198 29.1568 10.5025 28.9204L10.793 28.8712L10.5916 28.9504C9.49065 29.3405 8.34993 29.6123 7.19018 29.7609C6.80439 29.8155 6.41621 29.8512 6.02714 29.8677L5.5644 29.892L6.00419 29.9528C6.28606 29.9907 6.69038 30.0349 7.18018 30.0602C7.85226 30.0952 8.52642 30.0894 9.19872 30.043C8.87245 30.1839 8.54015 30.3168 8.20332 30.4505C7.04554 30.8974 5.86398 31.2827 4.66397 31.6045C3.67205 31.8672 2.99956 32.0037 2.99956 32.0037C2.99956 32.0037 3.68228 31.9827 4.71297 31.8938C5.9778 31.7796 7.2358 31.5966 8.48101 31.3458L8.66254 31.3151L8.15539 31.5182C6.84221 32.0295 5.48728 32.4309 4.10561 32.7181C3.53295 32.8376 3.05272 32.8964 2.71688 32.9533L2.19044 33.0425L2.72414 33.0513C3.06508 33.0521 3.55423 33.0459 4.11904 33.0179C5.56501 32.94 7.00279 32.7418 8.41641 32.4254C8.72048 32.3739 9.01786 32.2829 9.3122 32.2015L9.08503 32.3211C8.27268 32.7193 7.43757 33.0715 6.58396 33.376C5.05436 33.9589 3.45389 34.3437 1.82447 34.5202C1.65952 34.5353 1.49397 34.5422 1.32848 34.5411ZM52.3455 33.3538L52.9747 32.7963C54.1516 31.692 55.1629 30.4338 55.9785 29.0593C56.3574 28.4311 56.6948 27.7806 56.9886 27.1117C57.1453 26.7966 57.2371 26.4564 57.362 26.1467C57.487 25.837 57.5961 25.5164 57.6674 25.1932C57.7387 24.8701 57.8182 24.568 57.8865 24.2544C57.9675 23.9636 58.0298 23.6685 58.073 23.3706C58.1375 22.7871 58.236 22.2383 58.2603 21.7202C58.2846 21.2021 58.2861 20.7149 58.286 20.2731C58.2858 19.8312 58.21 19.4112 58.1757 19.0428L58.1206 18.5246C58.0938 18.3668 58.0686 18.2178 58.0463 18.0863C57.9996 17.8102 57.9368 17.5773 57.8951 17.386L57.7706 16.8164C57.7706 16.8164 57.773 17.0234 57.7733 17.4111C57.7742 17.6094 57.7794 17.861 57.7831 18.1309C57.8061 18.2667 57.7905 18.4227 57.7847 18.5815C57.7789 18.7403 57.7565 18.9109 57.7446 19.0888C57.7125 19.4504 57.6901 19.8419 57.6449 20.2644C57.5998 20.6869 57.4955 21.1464 57.4101 21.6343C57.3246 22.1222 57.1522 22.6203 57.0137 23.1532C56.9106 23.5089 56.7711 23.8707 56.6286 24.242C57.794 20.1569 57.2591 15.8107 55.1392 12.1401C56.1211 12.4247 57.2252 12.7968 58.3223 13.2106C59.7191 13.7523 61.086 14.362 62.4179 15.0374C63.5192 15.5858 64.2323 15.9926 64.2323 15.9926C64.2323 15.9926 63.5867 15.4887 62.5812 14.7888C61.5756 14.0889 60.1874 13.1968 58.7392 12.3916C58.2652 12.1292 57.7837 11.8771 57.3135 11.6366C58.1141 11.8707 58.8799 12.1197 59.6078 12.3932C61.0131 12.8902 62.2739 13.4431 63.3912 13.9483L64.9205 14.7082L66.2217 15.3896C66.9907 15.823 67.6194 16.1448 68.0306 16.3953L68.6676 16.7383L68.1514 16.2261C67.81 15.8916 67.3042 15.4137 66.6256 14.8252L65.481 13.8829C65.1235 13.5917 64.72 13.3039 64.2946 12.9972C66.7355 14.3064 69.0532 15.8176 71.222 17.5141C75.4295 20.7737 77.0911 21.9847 78.4173 22.6754C76.9145 23.6153 74.5158 25.054 71.486 26.6809L71.9042 26.3936C72.9859 25.6964 73.8967 25.0372 74.6407 24.4963C75.3848 23.9555 75.9577 23.5068 76.3502 23.2059L76.9369 22.7278C76.9369 22.7278 75.9987 23.2248 74.3623 24.0655C73.9542 24.2744 73.5022 24.4998 72.9979 24.7475C72.4937 24.9952 71.9697 25.2643 71.3912 25.5426C70.8128 25.821 70.2056 26.1222 69.5507 26.418C68.8959 26.7137 68.231 27.0608 67.5096 27.3769C66.0802 28.0337 64.5238 28.7122 62.8758 29.4286C62.0462 29.7675 61.1976 30.1322 60.3226 30.4788C59.4476 30.8253 58.5726 31.1719 57.6424 31.5233L54.8496 32.5374L52.3455 33.3538ZM34.506 32.7681L34.465 31.3682L33.4844 32.1114L34.177 29.4196L32.3795 31.2931C32.3639 31.2011 32.4027 31.0998 32.4182 30.998C32.4965 30.5423 32.6192 30.0943 32.7845 29.66C32.3502 29.9147 31.9437 30.2117 31.5714 30.5463L31.5229 30.5905L31.5407 30.4478C31.5982 30.0386 31.6856 29.6335 31.8023 29.2357C31.4169 29.4591 31.0489 29.7098 30.7015 29.9857L31.5985 27.895L29.7556 29.3073L29.7792 29.2537C29.9694 28.8468 30.1881 28.4527 30.4338 28.0742C29.9956 28.2121 29.5666 28.3766 29.1493 28.5668L29.2286 28.346C29.359 28.01 29.5126 27.6828 29.6883 27.3663C29.3118 27.4316 28.9403 27.5231 28.5769 27.6402C28.4816 27.6564 28.3907 27.6988 28.2984 27.7325C28.4237 27.5625 28.5663 27.385 28.7143 27.2112C29.0723 26.7819 29.455 26.3724 29.8604 25.9846C29.2881 26.105 28.7231 26.2579 28.1686 26.4424C28.0354 26.483 27.903 26.528 27.7713 26.5773L27.7668 26.551C27.9203 26.2934 28.0432 26.0199 28.133 25.7361C27.8532 25.7657 27.5713 25.7651 27.2924 25.7341L27.1299 25.7121L27.9588 24.6248L27.0953 24.6809L27.1992 24.5776C27.5482 24.2442 27.9178 23.9317 28.3058 23.6417C27.8008 23.6402 27.2958 23.6685 26.7936 23.7265L26.7301 23.7373L27.8347 22.955L26.2566 22.8436L28.4382 21.6941L26.7253 21.3935L27.5471 20.8981L26.7657 20.5571L29.1794 20.3647L27.3953 19.6163C27.747 19.5073 28.0892 19.3709 28.4187 19.2085C28.1056 19.0655 27.8055 18.8976 27.5214 18.7067L29.2098 18.3666L28.4493 17.8732L29.6604 17.8845L28.8203 17.1972L30.5785 17.2962L29.7538 16.5341L31.3529 16.7142L30.0957 15.7413L31.6114 16.0076L30.9578 15.1805L32.4045 15.2601L31.8643 14.4137L33.3743 15.0597L32.6359 13.7871L33.655 13.9887L33.5067 13.3059C33.6004 13.3352 33.6986 13.3636 33.7983 13.4008C34.1279 13.521 34.4463 13.6677 34.7502 13.8393C34.7107 13.5166 34.6472 13.1974 34.5604 12.884L35.7212 13.4809L35.3937 12.3461L36.6386 12.8882L36.7267 12.0302L37.5967 12.8116L37.6958 11.7984L38.2618 12.6043L38.3224 11.3631L38.9853 12.3555L39.4909 11.4267L40.0037 12.5798L40.5181 11.2618L40.9874 12.2689L41.5602 10.9095L41.8745 11.6904L42.4754 10.7454L42.915 11.6043L43.3745 10.9268L43.759 11.7635L44.3937 10.8804L44.8755 13.0082L45.6681 11.1831L45.9331 12.527L46.7628 11.1961L47.1525 12.2844L48.0067 11.3462L47.9749 12.5644L49.1961 11.5054L48.8832 12.6901L49.9832 12.1837C49.9178 12.321 49.8485 12.4635 49.7846 12.6096C49.4909 13.2655 49.2448 13.94 49.048 14.628C49.5199 14.1041 50.0275 13.6114 50.5676 13.1533C50.792 12.962 51.0231 12.7831 51.239 12.6248L51.1403 13.0338L51.8395 12.8071L51.1847 14.0407L52.7154 13.1548L51.3208 14.7887L53.4839 13.9714L52.3296 15.1499L54.1004 14.8274L53.1705 15.8145L54.6154 15.7457C54.6236 15.7939 54.631 15.8377 54.6384 15.8815L52.0639 17.2193L54.7161 17.1399L53.2564 17.838L55.1265 18.157L54.9016 18.2627C54.3262 18.5315 53.7155 18.7567 53.7155 18.7567C53.7155 18.7567 54.2674 18.9833 54.8746 19.1781L54.0055 19.5597L54.7064 20.0317L52.6992 20.2814L54.5787 20.9866L53.7268 21.194L54.5555 21.8697L53.7536 22.0416L54.2819 22.5699L52.6639 22.6365L54.4024 23.6947L53.1996 23.7045L53.9359 24.441L52.8208 24.445L53.572 25.2421L51.9528 24.7228L52.5833 25.6891L51.5634 25.4831L52.5686 26.7872L51.4594 26.5783L52.0789 27.6727L51.0366 27.3623L51.6961 28.4995L50.1928 27.893L50.748 28.7728L49.526 28.1457L50.3704 29.6033L49.5882 29.2849L49.765 29.805L48.5099 28.8994L49.0191 30.2244L47.9402 29.5324L48.3405 30.8488L47.7037 30.4517L47.7303 31.6285L46.4398 30.1833L46.7798 32.1908C46.6397 32.0251 46.483 31.8443 46.3187 31.6737C45.9554 31.2891 45.571 30.9237 45.167 30.5792C45.278 31.0756 45.3629 31.5774 45.4216 32.0826C45.4438 32.2141 45.4646 32.3369 45.4627 32.4634L44.0405 30.8196L44.2152 32.7604L43.5397 31.9144L43.3718 32.9077L42.3096 30.4951L42.02 33.1682L41.2299 31.2596L40.6497 33.8151L39.772 31.3892L39.3191 33.5941C39.2842 33.5244 39.2534 33.4529 39.2268 33.3798C39.0749 33.0123 38.9545 32.6331 38.8667 32.2459C38.6492 32.5761 38.4564 32.9207 38.2896 33.277L37.782 30.9688L36.9079 33.4434C36.8555 33.2789 36.8146 33.1111 36.7855 32.9411C36.6987 32.4841 36.6606 32.0192 36.6719 31.5536C36.3454 31.9379 36.0623 32.3547 35.8274 32.7968L35.746 32.9503C35.72 32.7969 35.6933 32.6391 35.7021 32.4708C35.6748 31.9669 35.6875 31.4613 35.7401 30.9584C35.3807 31.3589 35.055 31.7865 34.7662 32.237C34.6711 32.447 34.5806 32.6021 34.494 32.7521L34.506 32.7681ZM12.6435 31.8312C13.7418 29.8548 14.947 27.935 16.2538 26.0797C16.1284 26.3038 16.0166 26.5257 15.8987 26.7395L15.2664 28.0775C15.0723 28.4756 14.9283 28.8381 14.7912 29.1589L14.4614 29.9678C14.2891 30.4117 14.1932 30.6444 14.1932 30.6444L14.6403 30.0592C14.9257 29.6772 15.3335 29.1077 15.8731 28.4076L16.7688 27.2459L17.8435 25.9006C18.2283 25.4161 18.6501 24.9299 19.0993 24.412L19.7859 23.6148L20.4489 22.8984L20.3061 23.13C18.7088 25.7451 17.3932 28.4793 17.3932 28.4793C17.3932 28.4793 19.13 25.9713 21.1012 23.6626C22.1226 22.4436 23.2004 21.2826 24.0006 20.4663C24.0169 23.6208 25.0029 26.6886 26.833 29.2792C26.5822 28.9835 26.3374 28.6959 26.1289 28.402C25.8272 27.9436 25.5132 27.5234 25.2545 27.0983C24.9958 26.6732 24.802 26.2732 24.5817 25.8821C24.3614 25.4911 24.2484 25.127 24.0997 24.8005C24.0246 24.6328 23.9563 24.4776 23.894 24.3303C23.8317 24.1831 23.7929 24.0364 23.7472 23.9043C23.6603 23.6395 23.5847 23.4133 23.521 23.2302C23.3928 22.8597 23.3269 22.6634 23.3269 22.6634C23.3269 22.6634 23.3611 22.8651 23.3901 23.2569C23.4228 23.4498 23.4416 23.6991 23.4741 23.9731C23.4978 24.1134 23.5238 24.2668 23.5483 24.4114C23.5728 24.5561 23.6047 24.7445 23.6714 24.9181C23.7595 25.2729 23.8513 25.6767 23.9664 26.1081C24.0814 26.5395 24.2827 26.9563 24.4671 27.4661C24.6515 27.9759 24.9298 28.4338 25.1875 28.9627C25.3221 29.2313 25.4766 29.49 25.65 29.7366C25.8162 30.0015 25.9915 30.2649 26.166 30.5509C26.3405 30.837 26.5757 31.0677 26.7683 31.3507C26.976 31.6247 27.1983 31.8881 27.4342 32.1397C27.933 32.675 28.4659 33.1796 29.0299 33.6504C30.2546 34.6773 31.6235 35.532 33.0968 36.1899L34.2799 36.6704L34.3207 36.6635L34.1106 36.663C32.2636 36.6737 30.4195 36.5611 28.5914 36.3263C27.7163 36.231 26.8845 36.0337 26.0571 35.9168C25.2297 35.8 24.4661 35.5641 23.7166 35.4115C22.9672 35.2589 22.2475 35.0065 21.5942 34.788L20.6057 34.464L20.1132 34.3129L19.6677 34.1359C19.0833 33.9102 18.5336 33.6967 18.0338 33.4748L17.3106 33.1464L16.6652 32.8363C15.8009 32.4264 14.9637 31.9659 14.1581 31.4574C14.1581 31.4574 14.3344 31.644 14.7114 31.9679C15.2441 32.4315 15.8024 32.8667 16.3842 33.2717L16.9824 33.6889L17.6569 34.1157C18.1201 34.425 18.6529 34.7045 19.2106 35.0204L19.6423 35.2538L20.1005 35.4783L21.0569 35.9431L21.3853 36.0904C18.27 35.0873 15.3257 33.6528 12.6435 31.8312Z" fill="white"/>
</svg>
